<svg xmlns="http://www.w3.org/2000/svg" xmlns:xlink="http://www.w3.org/1999/xlink" width="21" height="21" viewBox="-95 97 64.1 64"><g><rect x="-69.5" y="133.1" class="st0" width="4" height="27.9"/><path class="st0" d="M-78.9,148.1c0,4.9-4,8.9-8.9,8.9v4c7.1,0,12.9-5.8,12.9-12.9v-15h-4V148.1z"/><path class="st0" d="M-47.1,148.1v-15h-4v15c0,7.1,5.8,12.9,12.9,12.9v-4C-43.1,157-47.1,153-47.1,148.1z"/><rect x="-60.4" y="133.1" class="st0" width="4" height="27.9"/><path class="st0" d="M-82.9,110h3.5h33h3.4c1.1,0,2-0.9,2-2v-3.5V97h-43.9v7.5v3.5C-84.9,109.1-84,110-82.9,110z M-78.9,100.3h32v2 h-32V100.3z M-78.9,105h32v2h-32V105z"/><path class="st0" d="M-54.9,121.1h-0.4h-6.8h-2h-6.7h-0.4c-2.1,0.1-3.8,1.8-3.8,4l0,0h23.9l0,0C-51.1,122.9-52.8,121.2-54.9,121.1z"/><path class="st0" d="M-39.1,97v11c0,0.6-0.1,1.2-0.4,1.7c0,0.1-0.1,0.2-0.2,0.3c-0.3,0.5-0.6,0.9-1,1.2c0,0,0,0-0.1,0 c-0.6,0.5-1.4,0.8-2.3,0.8H-83c-0.6,0-1.2-0.1-1.7-0.4c-0.6-0.3-1.1-0.7-1.5-1.2c-0.5-0.7-0.8-1.5-0.8-2.4V97l0,0c-4.4,0-8,3.6-8,8 v12c0,4.4,3.6,8,8,8h8l0,0c0-0.3,0-0.7,0.1-1c0.1-1.1,0.5-2.1,1-3c0.7-1.2,1.7-2.3,3-3c1.2-0.7,2.5-1,4-1h16c1.4,0,2.8,0.4,4,1 c1.2,0.7,2.3,1.7,3,3c0.5,0.9,0.9,1.9,1,3c0,0.3,0.1,0.7,0.1,1l0,0h8c4.4,0,8-3.6,8-8v-12C-30.9,100.6-34.6,97-39.1,97z"/></g></svg>
