<svg xmlns="http://www.w3.org/2000/svg" xmlns:xlink="http://www.w3.org/1999/xlink" width="21" height="21" viewBox="-101.3 97 64 64" style="enable-background:new -101.3 97 64 64;" xml:space="preserve"><g><path class="st0" d="M-50.6,149.3h-37.6c-2.1,0-3.8,1.5-3.8,3.4v3.4h45.1v-3.4C-46.8,150.8-48.5,149.3-50.6,149.3z"/><rect x="-71.2" y="102" class="st0" width="3.8" height="10.1"/><polygon class="st0" points="-58.3,115.2 -61.6,113.5 -56,104.8 -52.7,106.5 "/><polygon class="st0" points="-53.9,119.1 -44.2,114 -42.3,116.9 -52.1,122 "/><polygon class="st0" points="-80.4,115.2 -86,106.4 -82.7,104.8 -77.1,113.5 "/><polygon class="st0" points="-86.5,122 -96.3,117 -94.4,114 -84.7,119.1 "/><path class="st0" d="M-69.3,115.5c-5.6,0-10.5,2.8-13.1,6.9c-1.2,1.9-1.9,4.2-1.9,6.6v13.5v3.4h30.1v-3.4V129c0-2.4-0.8-4.6-2-6.6 C-58.8,118.3-63.7,115.5-69.3,115.5z M-80.6,141.9V129c0-2,0.7-3.9,1.8-5.5c3.5,1.8,5.7,5.1,5.7,8.9 C-73,136.8-76.2,140.6-80.6,141.9z M-58.1,141.9c-4.4-1.4-7.6-5.1-7.6-9.5c0-3.8,2.3-7.1,5.8-8.9c1.1,1.6,1.8,3.5,1.8,5.5V141.9z"/></g></svg>
