<svg xmlns="http://www.w3.org/2000/svg" xmlns:xlink="http://www.w3.org/1999/xlink" width="21" height="21" viewBox="-115 117 24 24"><g><path class="st0" d="M-101,131v-3h-10v8c0,1.1,0.9,2,2,2h12c1.1,0,2-0.9,2-2v-3h-4C-100.1,133-101,132.1-101,131z"/><path class="st0" d="M-97,120h-12c-1.1,0-2,0.9-2,2v5h10l6,6v-11C-95,120.9-95.9,120-97,120z M-103.5,124c0,0.6-0.4,1-1,1h-4.5 c-0.6,0-1-0.4-1-1v-2c0-0.6,0.4-1,1-1h4.5c0.6,0,1,0.4,1,1V124z M-96,124c0,0.6-0.4,1-1,1h-4.5c-0.6,0-1-0.4-1-1v-2 c0-0.6,0.4-1,1-1h4.5c0.6,0,1,0.4,1,1V124z"/></g></svg>
