<svg xmlns="http://www.w3.org/2000/svg" xmlns:xlink="http://www.w3.org/1999/xlink" width="21" height="21" viewBox="-95 97 64 64"><g><path class="st0" d="M-90,102v33.8h54V102H-90z M-39.4,132.4h-47.3v-27h47.3V132.4z"/><path class="st0" d="M-64.7,139.1v3.4h-6.8c-0.9,0-1.7,0.8-1.7,1.7v1.7h20.3v-1.7c0-0.9-0.8-1.7-1.7-1.7h-6.8v-3.4H-64.7z"/><path class="st0" d="M-42.8,145h-2.5c-1.4,0-2.5-1.1-2.5-2.5v-3.4h-1.7v3.4c0,2.4,1.9,4.2,4.2,4.2h2.5c1.4,0,2.5,1.1,2.5,2.5 s-1.1,2.5-2.5,2.5h-3.4v-2.5h-33.8v6.8h33.8v-2.5h3.4c2.4,0,4.2-1.9,4.2-4.2S-40.4,145-42.8,145z M-74.8,154.3 c-0.9,0-1.7-0.8-1.7-1.7s0.8-1.7,1.7-1.7s1.7,0.8,1.7,1.7S-73.9,154.3-74.8,154.3z M-68.1,154.3c-0.9,0-1.7-0.8-1.7-1.7 s0.8-1.7,1.7-1.7s1.7,0.8,1.7,1.7S-67.1,154.3-68.1,154.3z"/></g></svg>
