<svg xmlns="http://www.w3.org/2000/svg" xmlns:xlink="http://www.w3.org/1999/xlink" width="21" height="21" viewBox="-115 117 24 24"><g><path class="st0" d="M-112,136c0,1.1,0.9,2,2,2h14c1.1,0,2-0.9,2-2v-11h-18V136z M-110,130v-3h1h13v9h-14V130z"/><path class="st0" d="M-94,122c0-1.1-0.9-2-2-2h-14c-1.1,0-2,0.9-2,2v2h18V122z M-100,123c-0.6,0-1-0.4-1-1s0.4-1,1-1s1,0.4,1,1 S-99.4,123-100,123z M-97,123c-0.6,0-1-0.4-1-1s0.4-1,1-1s1,0.4,1,1S-96.4,123-97,123z"/><path class="st0" d="M-100,128v7c1.1,0,2-0.9,2-2v-3C-98,128.9-98.9,128-100,128z"/><path class="st0" d="M-103,128v7c1.1,0,2-0.9,2-2v-3C-101,128.9-101.9,128-103,128z"/><path class="st0" d="M-108,131c0,0.5,0.4,1,1,1v2h-1v1h3v-1h-1v-2c0.6,0,1-0.4,1-1v-3h-3V131z"/></g></svg>
