<svg xmlns="http://www.w3.org/2000/svg" xmlns:xlink="http://www.w3.org/1999/xlink" width="21" height="21" viewBox="-115 117 24 24"><g><path class="st0" d="M-96.3,120h-13.5c-1.2,0-2.3,0.8-2.3,1.8v2.7h18v-2.7C-94,120.8-95,120-96.3,120z M-105.3,123.2h-4.5v-1.8h4.5 V123.2z M-100.8,123.2c-0.7,0-1.1-0.4-1.1-0.9s0.4-0.9,1.1-0.9s1.1,0.4,1.1,0.9S-100.1,123.2-100.8,123.2z M-97.4,123.2 c-0.7,0-1.1-0.4-1.1-0.9s0.4-0.9,1.1-0.9s1.1,0.4,1.1,0.9S-96.7,123.2-97.4,123.2z"/><path class="st0" d="M-112,136.2c0,1,1,1.8,2.3,1.8h13.5c1.2,0,2.3-0.8,2.3-1.8v-10.8h-18V136.2z M-105.8,129.4 c0-1.3,1.2-2.3,2.8-2.3v4.5c0-1.3,1.2-2.3,2.8-2.3s2.8,1,2.8,2.3h-5.6c1.6,0,2.8,1,2.8,2.3s-1.2,2.3-2.8,2.3v-4.5 c0,1.3-1.2,2.3-2.8,2.3s-2.8-1-2.8-2.3h5.6C-104.6,131.7-105.8,130.7-105.8,129.4z"/></g></svg>
