<svg xmlns="http://www.w3.org/2000/svg" xmlns:xlink="http://www.w3.org/1999/xlink" width="21" height="21" viewBox="-115 117 24 24"><g><polygon class="st0" points="-109.8,132.6 -110.9,134.4 -109.8,136.2 -110.9,138 -109.8,138 -108.6,136.2 -109.8,134.4 -108.6,132.6"/><polygon class="st0" points="-105.3,132.6 -106.4,134.4 -105.3,136.2 -106.4,138 -105.3,138 -104.1,136.2 -105.3,134.4 -104.1,132.6"/><polygon class="st0" points="-100.8,132.6 -101.9,134.4 -100.8,136.2 -101.9,138 -100.8,138 -99.6,136.2 -100.8,134.4 -99.6,132.6"/><polygon class="st0" points="-96.3,132.6 -97.4,134.4 -96.3,136.2 -97.4,138 -96.3,138 -95.1,136.2 -96.3,134.4 -95.1,132.6"/><rect x="-105.3" y="120" class="st0" width="4.5" height="2.7"/><polygon class="st0" points="-96.3,127.2 -109.8,127.2 -112,127.2 -112,130.8 -94,130.8 -94,127.2"/><polygon class="st0" points="-100.8,123.6 -105.3,123.6 -108.6,126.3 -97.4,126.3 "/></g></svg>
