<svg xmlns="http://www.w3.org/2000/svg" xmlns:xlink="http://www.w3.org/1999/xlink" width="21" height="21" viewBox="172 -172 600 600"><g id="XMLID_7_"><path id="XMLID_15_" class="st0" d="M251.1,363.1h103.1v-470.9H251.1c-8.1,0-14.7,6.6-14.7,14.7v441.4 C236.4,356.5,243,363.1,251.1,363.1z"/><path id="XMLID_8_" class="st0" d="M383.6-108v471.5h309.3c8.1,0,14.7-6.6,14.7-14.7v-442c0-8.1-6.6-14.7-14.7-14.7L383.6-108 L383.6-108z M530.9,304.4h-29.5V275h29.5V304.4z M589.8,304.4h-29.5V275h29.5V304.4z M648.7,216.1H442.5v-14.7h206.2V216.1z M648.7,156.6H442.5v-14.7h206.2V156.6z M648.7,98.2H442.5V-49h206.2V98.2z"/></g><g id="XMLID_1_"></g><g id="XMLID_2_"></g><g id="XMLID_3_"></g><g id="XMLID_4_"></g><g id="XMLID_5_"></g><g id="XMLID_6_"></g></svg>
