<svg xmlns="http://www.w3.org/2000/svg" xmlns:xlink="http://www.w3.org/1999/xlink" width="21" height="21" viewBox="-115 117 24 24"><g><circle class="st0" cx="-108" cy="122.5" r="2"/><path class="st0" d="M-103.9,128.5c-0.3-0.2-0.6-0.5-0.8-0.7l-1.4-1.6c-0.2-0.2-0.4-0.4-0.7-0.5c-0.3-0.1-0.6-0.2-1-0.2l0,0 c-1.2,0-2.2,1-2.2,2.3v0.8h-3v8c0,1.1,0.9,2,2,2h16c1.1,0,2-0.9,2-2v-8L-103.9,128.5L-103.9,128.5z M-108,136.5h-2v-6h2V136.5z M-104,136.5h-2v-6h2V136.5z M-100,136.5h-2v-6h2V136.5z M-96,136.5h-2v-6h2V136.5z M-96.4,122.4L-96.4,122.4 c-0.6-0.7-0.9-1.5-0.7-2.3l0.1-0.6h-1.9l-0.1,0.4c-0.2,1.4,0.3,2.7,1.3,3.7l0.1,0.1c0.6,0.6,0.8,1.4,0.7,2.2l-0.1,0.6h1.9l0.1-0.4 C-94.8,124.7-95.3,123.4-96.4,122.4z M-100.4,122.4L-100.4,122.4c-0.6-0.7-0.9-1.5-0.7-2.3l0.1-0.6h-1.9l-0.1,0.4 c-0.2,1.4,0.3,2.7,1.3,3.7l0.1,0.1c0.6,0.6,0.8,1.4,0.7,2.2l-0.1,0.6h1.9l0.1-0.4C-98.8,124.7-99.3,123.4-100.4,122.4z"/></g></svg>
