<svg xmlns="http://www.w3.org/2000/svg" xmlns:xlink="http://www.w3.org/1999/xlink" width="21" height="21" viewBox="-115 117 24 24"><g><path class="st0" d="M-112,136c0,1.1,0.9,2,2,2h14c1.1,0,2-0.9,2-2v-11h-18V136z M-110,126h14v1h-14V126z M-110,128h14v8h-14V128z"/><path class="st0" d="M-94,122c0-1.1-0.9-2-2-2h-14c-1.1,0-2,0.9-2,2v2h18V122z M-109,123c-0.6,0-1-0.4-1-1s0.4-1,1-1s1,0.4,1,1 S-108.4,123-109,123z M-106,123c-0.6,0-1-0.4-1-1s0.4-1,1-1s1,0.4,1,1S-105.4,123-106,123z M-100,123c-0.6,0-1-0.4-1-1s0.4-1,1-1 s1,0.4,1,1S-99.4,123-100,123z M-97,123c-0.6,0-1-0.4-1-1s0.4-1,1-1s1,0.4,1,1S-96.4,123-97,123z"/></g></svg>
