<svg xmlns="http://www.w3.org/2000/svg" xmlns:xlink="http://www.w3.org/1999/xlink" width="21" height="21" viewBox="-115 117 24 24"><g><circle class="st0" cx="-103" cy="121" r="2"/><path class="st0" d="M-96,130v-2c-1.5,0-3.1-0.8-4.1-1.8l-1.3-1.4c-0.2-0.2-0.4-0.3-0.6-0.5l0,0l0,0c-0.3-0.2-0.8-0.3-1.2-0.3 c-1,0.1-1.8,1-1.8,2.1v5.9c0,1.1,0.9,2,2,2h5v5h2v-5.5c0-1.1-0.9-2-2-2h-3V128C-99.7,129.1-97.8,130-96,130z"/><path class="st0" d="M-105,137c-1.7,0-3-1.3-3-3c0-1.3,0.8-2.4,2-2.8v-2.1c-2.3,0.5-4,2.5-4,4.9c0,2.8,2.2,5,5,5 c2.4,0,4.4-1.7,4.9-4h-2.1C-102.6,136.2-103.7,137-105,137z"/></g></svg>
