<svg xmlns="http://www.w3.org/2000/svg" xmlns:xlink="http://www.w3.org/1999/xlink" width="21" height="21" viewBox="172 -172 600 600"><path id="XMLID_7_" class="st0" d="M668-109.9c-31.9,10.2-66,15.8-101.3,15.8c-33.1,0-65.1-4.9-95.2-14c-30.1,9.1-62.1,14-95.2,14 c-35.3,0-69.4-5.6-101.3-15.8C249.8-63.1,235.4-9.5,235.4,47.4c0,149.9,99.6,276.6,236.2,317.4C608,324,707.7,197.4,707.7,47.4 C707.7-9.5,693.2-63.1,668-109.9z M471.5,333.7V127.8H276.1C268.9,102,265,75,265,47.4c0-42,8.9-83.8,25.7-122.1 c27.9,6.8,56.6,10.2,85.5,10.2c32.3,0,64.3-4.3,95.2-12.8v205h195.4C640.2,223,567.5,301.9,471.5,333.7z"/><g id="XMLID_1_"></g><g id="XMLID_2_"></g><g id="XMLID_3_"></g><g id="XMLID_4_"></g><g id="XMLID_5_"></g><g id="XMLID_6_"></g></svg>
