<svg width="21" height="21" viewBox="0 0 537 469" version="1.1" xmlns="http://www.w3.org/2000/svg" xmlns:xlink="http://www.w3.org/1999/xlink"><g id="Page-1" stroke="none" stroke-width="1" fill="none" fill-rule="evenodd" fill-opacity="0.806730257"><g id="Group" fill="#010000" fill-rule="nonzero"><path d="M388.7,468.5 L330.9,468.5 L330.9,303.2 C330.9,267.2 317.8,249.2 291.5,249.2 C279.6,249.2 266.7,253 252.7,260.6 C239.1,268.2 228.8,277.6 221.6,288.6 C222,295 222.2,300.7 222.2,305.8 L222.2,468.6 L164.3,468.6 L164.3,305.8 C164.3,268.1 151,249.2 124.3,249.2 C112.8,249.2 100.8,253 88.1,260.6 C75.4,267.8 65.4,276.7 58.2,287.3 L58.2,468.5 L0.4,468.5 L0.4,197.7 L58.2,197.7 L58.2,220.6 C81.1,203.2 103.1,194.5 124.3,194.5 C159.9,194.5 186.6,208.5 204.4,236.5 C232.8,208.5 261.8,194.5 291.5,194.5 C324.6,194.5 349.6,205.5 366.5,227.6 C381.3,247.1 388.7,273.2 388.7,305.8 L388.7,468.5 L388.7,468.5 Z M536.1,188.9 L536.1,218.6 L402.6,218.6 C407.4,196.9 415.6,177.5 427.2,160.2 C436.4,146.8 449.9,131.7 467.7,114.9 C479.5,104.1 487.7,95.4 492.6,89 C500,78.4 503.7,67.6 503.7,56.5 C503.7,39.7 492.2,31.2 469.1,31.2 C446.5,31.2 434.4,47.6 432.8,80.3 L403,68.9 C405.1,48.1 411.5,31.8 422.4,19.8 C433.9,6.9 449.5,0.4 469.1,0.4 C488.2,0.4 503.7,4.8 515.4,13.5 C529.5,23.4 536.5,37.7 536.5,56.4 C536.5,71.1 531.3,85.9 520.9,100.7 C514.2,110.2 503.6,121.7 489.1,135.3 C464.7,158.4 449.6,176.2 443.8,188.9 L536.1,188.9 L536.1,188.9 Z" id="Shape"></path></g></g></svg>
