<svg xmlns="http://www.w3.org/2000/svg" xmlns:xlink="http://www.w3.org/1999/xlink" width="21" height="21" viewBox="-115 117 24 24"><g><path class="st0" d="M-112,136c0,1.1,0.9,2,2,2h14c1.1,0,2-0.9,2-2v-10h-18V136z M-110,130v-2h14v8h-14V130z"/><path class="st0" d="M-96,121c0-0.6-0.4-1-1-1h-3c-0.6,0-1,0.4-1,1h-3c0-0.6-0.4-1-1-1h-4c-0.6,0-1,0.4-1,1c-1.1,0-2,0.9-2,2v2h18 v-2C-94,121.9-94.9,121-96,121z M-109,124c-0.6,0-1-0.4-1-1s0.4-1,1-1s1,0.4,1,1S-108.4,124-109,124z M-106,124c-0.6,0-1-0.4-1-1 s0.4-1,1-1s1,0.4,1,1S-105.4,124-106,124z M-100,124c-0.6,0-1-0.4-1-1s0.4-1,1-1s1,0.4,1,1S-99.4,124-100,124z M-97,124 c-0.6,0-1-0.4-1-1s0.4-1,1-1s1,0.4,1,1S-96.4,124-97,124z"/></g></svg>
