<svg xmlns="http://www.w3.org/2000/svg" xmlns:xlink="http://www.w3.org/1999/xlink" width="21" height="21" viewBox="-95 96.9 64.1 64.1"><g><path class="st0" d="M-59.8,137L-71,125.8c-1.6-1.6-2-4-1.3-6L-86,106c-5.2,5.2-5.2,13.8,0,19l27,26.9c5.2,5.3,13.8,5.3,19,0l0,0 l-13.8-13.7C-55.8,139-58.2,138.6-59.8,137z"/><path class="st0" d="M-68.7,116.2c0.7-0.7,0.7-1.7,0-2.4L-80,102.5c-0.7-0.7-1.7-0.7-2.4,0l-1.3,1.2l13.8,13.8L-68.7,116.2z"/><path class="st0" d="M-36.4,146.1l-11.5-11.4c-0.7-0.7-1.7-0.7-2.4,0l-1.2,1.2l13.8,13.8l1.2-1.2 C-35.8,147.8-35.8,146.8-36.4,146.1z"/></g></svg>
