<svg xmlns="http://www.w3.org/2000/svg" xmlns:xlink="http://www.w3.org/1999/xlink" width="21" height="21" viewBox="-115 117 24 24"><g><path class="st0" d="M-97,119h-12c-1.1,0-2,0.9-2,2v3h16v-3C-95,119.9-95.9,119-97,119z M-105,122.5h-4v-2h4V122.5z M-101,122.5   c-0.6,0-1-0.4-1-1s0.4-1,1-1s1,0.4,1,1S-100.4,122.5-101,122.5z M-98,122.5c-0.6,0-1-0.4-1-1s0.4-1,1-1s1,0.4,1,1   S-97.4,122.5-98,122.5z"/><path class="st0" d="M-111,137c0,1.1,0.9,2,2,2h12c1.1,0,2-0.9,2-2v-12h-16V137z M-103,127c2.8,0,5,2.2,5,5s-2.2,5-5,5s-5-2.2-5-5   S-105.8,127-103,127z"/><path class="st0" d="M-103,135c1.7,0,3-1.3,3-3h-6C-106,133.7-104.7,135-103,135z"/></g></svg>
