<?xml version="1.0" standalone="no"?>
<!DOCTYPE svg PUBLIC "-//W3C//DTD SVG 20010904//EN"
 "http://www.w3.org/TR/2001/REC-SVG-20010904/DTD/svg10.dtd">
<svg version="1.0" xmlns="http://www.w3.org/2000/svg"
 width="800.000000pt" height="800.000000pt" viewBox="0 0 800.000000 800.000000"
 preserveAspectRatio="xMidYMid meet">
<metadata>
Created by potrace 1.11, written by Peter Selinger 2001-2013
</metadata>
<g transform="translate(0.000000,800.000000) scale(0.100000,-0.100000)"
fill="#000000" stroke="none">
<path d="M4530 7068 c-96 -27 -186 -51 -199 -54 -14 -3 -28 -7 -33 -10 -4 -3
-17 -7 -28 -9 -29 -6 -212 -55 -230 -62 -8 -3 -22 -7 -30 -9 -28 -5 -55 -12
-55 -15 0 -1 -9 -3 -20 -5 -11 -1 -51 -12 -90 -23 -38 -12 -81 -24 -95 -27
-27 -5 -37 -8 -60 -16 -42 -14 -88 -28 -110 -32 -14 -3 -115 -30 -225 -61
-110 -31 -207 -58 -215 -60 -8 -1 -35 -8 -60 -15 -25 -7 -45 -12 -45 -11 0 0
-38 -11 -85 -25 -47 -14 -96 -28 -110 -30 -14 -3 -29 -9 -34 -14 -11 -11 -14
-58 -4 -87 4 -12 3 -25 -2 -28 -5 -3 -6 -16 -1 -28 4 -12 4 -35 1 -52 -3 -16
-3 -39 1 -51 4 -11 4 -27 -1 -34 -5 -7 -5 -23 -1 -34 4 -12 5 -32 1 -46 -4
-14 -3 -34 1 -46 4 -11 4 -27 -1 -34 -5 -7 -5 -23 -1 -34 4 -12 5 -32 1 -46
-4 -14 -3 -35 1 -47 5 -12 4 -25 -1 -28 -5 -3 -6 -13 -3 -22 6 -14 7 -70 3
-90 -4 -21 -1 -103 4 -111 3 -6 2 -13 -3 -17 -6 -3 -7 -13 -4 -22 6 -14 7 -71
3 -90 -4 -20 -1 -103 4 -112 4 -5 2 -12 -3 -16 -6 -3 -7 -15 -2 -28 4 -12 4
-35 1 -52 -3 -16 -3 -40 1 -52 5 -12 4 -25 -1 -28 -5 -3 -6 -13 -3 -22 6 -14
7 -70 3 -90 -4 -21 -1 -103 4 -111 3 -6 2 -13 -3 -17 -6 -3 -7 -13 -4 -22 6
-14 7 -71 3 -90 -4 -20 -1 -103 4 -112 4 -5 2 -12 -3 -16 -6 -3 -7 -15 -2 -28
4 -12 4 -35 1 -52 -3 -16 -3 -39 1 -51 4 -11 4 -27 -1 -34 -5 -7 -5 -23 -1
-34 4 -12 5 -32 1 -46 -4 -14 -3 -34 1 -46 4 -11 4 -27 -1 -34 -5 -7 -5 -23
-1 -34 4 -12 5 -32 1 -46 -4 -14 -3 -35 1 -47 5 -12 4 -25 -1 -28 -5 -3 -6
-13 -3 -22 6 -14 7 -70 3 -90 -4 -21 -1 -103 4 -111 3 -6 2 -13 -3 -17 -6 -3
-7 -13 -4 -22 6 -14 7 -71 3 -90 -4 -20 -1 -103 4 -112 4 -5 2 -12 -3 -16 -6
-3 -7 -15 -2 -28 4 -12 4 -35 1 -52 -3 -16 -3 -39 1 -51 4 -11 4 -27 -1 -34
-5 -7 -5 -23 -1 -34 4 -12 5 -32 1 -46 -4 -14 -3 -34 1 -46 4 -11 4 -27 -1
-34 -5 -7 -5 -23 -1 -34 4 -12 5 -32 1 -46 -4 -14 -3 -35 1 -47 5 -12 4 -25
-1 -28 -5 -3 -6 -13 -3 -22 6 -14 7 -70 3 -90 -4 -21 -1 -103 4 -111 3 -6 2
-13 -3 -17 -6 -3 -7 -13 -4 -22 6 -14 7 -71 3 -90 -4 -20 -1 -103 4 -112 4 -5
2 -12 -3 -16 -6 -3 -7 -16 -3 -28 6 -20 7 -54 2 -82 -4 -26 -2 -104 4 -113 3
-6 2 -13 -4 -17 -6 -4 -8 -11 -4 -16 8 -14 11 -99 3 -99 -4 0 -3 -16 1 -34 4
-19 5 -37 2 -40 -7 -8 -6 -102 2 -114 3 -6 2 -13 -3 -17 -6 -3 -7 -13 -4 -22
8 -20 8 -81 1 -89 -3 -3 -2 -20 2 -39 4 -19 5 -36 2 -39 -7 -8 -6 -102 2 -114
3 -6 2 -13 -4 -17 -6 -4 -8 -11 -4 -16 8 -14 11 -99 3 -99 -4 0 -3 -16 1 -34
4 -19 5 -37 2 -40 -7 -8 -6 -102 2 -114 3 -6 2 -13 -3 -17 -6 -3 -7 -13 -4
-22 8 -20 8 -81 1 -89 -3 -3 -2 -20 2 -39 4 -19 5 -36 2 -39 -7 -8 -6 -102 2
-114 3 -6 2 -13 -4 -17 -6 -4 -8 -11 -4 -16 8 -14 11 -99 3 -99 -4 0 -3 -16 1
-35 4 -19 5 -35 1 -35 -7 0 -5 -96 4 -118 3 -9 3 -14 0 -10 -4 3 -20 2 -36 -2
-16 -5 -29 -5 -29 0 0 4 -16 4 -35 0 -19 -4 -37 -4 -40 1 -3 4 -16 4 -29 -1
-13 -5 -27 -6 -30 -3 -8 8 -256 9 -256 2 0 -4 -16 -3 -35 1 -19 4 -35 5 -35 1
0 -7 -88 -6 -96 2 -4 3 -17 2 -30 -3 -13 -5 -26 -6 -29 0 -3 5 -18 5 -35 0
-17 -5 -30 -5 -30 0 0 4 -16 4 -35 0 -20 -4 -38 -4 -41 1 -3 5 -9 7 -14 4 -7
-5 -26 -5 -158 -4 -34 0 -67 -3 -72 -6 -6 -3 -10 -2 -10 4 0 6 -11 6 -30 1
-16 -5 -32 -5 -35 -1 -2 4 -24 5 -48 1 -25 -3 -54 -3 -65 1 -12 5 -24 4 -27
-1 -3 -5 -15 -6 -29 0 -12 4 -29 5 -36 0 -7 -4 -26 -4 -41 0 -17 5 -29 5 -29
0 0 -5 -7 -7 -15 -4 -10 4 -15 0 -16 -12 -2 -33 -1 -99 1 -109 1 -5 1 -12 0
-15 -6 -17 -5 -50 2 -50 5 0 6 -5 3 -10 -3 -6 -4 -18 -1 -28 5 -15 16 -16 80
-12 41 3 85 3 97 0 12 -3 48 -3 81 0 32 3 58 2 58 -3 0 -4 4 -6 9 -3 5 3 51 6
102 5 52 0 109 0 127 0 17 0 55 1 82 1 28 0 57 0 65 0 8 0 22 0 30 0 8 0 36 0
63 0 26 0 58 1 72 3 14 1 40 0 58 -4 17 -4 34 -3 37 1 3 4 20 5 38 1 18 -5 41
-6 52 -4 11 2 41 4 68 3 26 0 54 0 62 0 8 0 22 0 30 0 8 0 36 0 63 0 26 0 58
1 72 3 14 1 40 0 58 -4 17 -4 34 -3 37 1 3 4 20 5 38 1 18 -5 41 -6 52 -4 11
2 41 4 68 3 26 0 54 0 62 0 8 0 22 0 30 0 8 0 36 0 63 0 26 0 73 1 105 2 31 2
57 1 57 -2 0 -3 36 -3 80 0 43 3 89 3 101 0 12 -3 48 -3 81 0 32 3 58 2 58 -3
0 -4 4 -6 9 -3 5 3 51 6 102 5 52 0 109 0 127 0 17 0 55 1 82 1 28 0 57 0 65
0 8 0 22 0 30 0 8 0 36 0 63 0 26 0 58 1 72 3 14 1 40 0 58 -4 17 -4 34 -3 37
1 3 4 20 5 38 1 18 -5 41 -6 52 -4 11 2 41 4 68 3 26 0 54 0 62 0 8 0 22 0 30
0 8 0 36 0 63 0 26 0 58 1 72 3 14 1 40 0 58 -4 17 -4 34 -3 37 1 3 4 20 5 38
1 18 -5 41 -6 52 -4 11 2 41 4 68 3 26 0 55 0 65 0 9 0 28 0 42 -1 31 -1 66
-1 103 0 15 1 39 1 55 2 36 1 71 1 102 0 14 -1 33 -1 43 -1 9 0 38 0 65 0 26
0 58 1 72 3 14 1 40 0 58 -4 17 -4 34 -3 37 1 3 4 20 5 38 1 18 -5 41 -6 52
-4 11 2 41 4 68 3 26 0 54 0 62 0 8 0 22 0 30 0 8 0 36 0 63 0 26 0 58 1 72 3
14 1 40 0 58 -4 17 -4 34 -3 37 1 3 4 20 5 38 1 18 -5 41 -6 52 -4 11 2 41 4
68 3 26 0 55 0 65 0 9 0 28 0 42 -1 14 0 39 -1 55 0 154 2 206 2 214 -3 5 -4
12 -2 15 3 4 6 18 6 35 1 15 -4 34 -4 41 0 11 7 14 60 7 135 -1 17 1 40 5 52
4 12 3 25 -3 28 -5 4 -7 10 -4 15 3 4 -4 10 -15 13 -11 3 -20 2 -20 -1 0 -8
-68 -7 -76 1 -3 3 -16 2 -29 -3 -13 -5 -26 -6 -29 -2 -8 8 -103 5 -116 -3 -6
-3 -10 -3 -10 2 0 8 -114 7 -137 -2 -7 -2 -15 0 -18 5 -3 6 -15 6 -29 0 -13
-5 -27 -6 -30 -3 -8 8 -256 9 -256 2 0 -4 -16 -3 -35 1 -19 4 -35 4 -35 -1 0
-4 -10 -5 -22 0 -13 4 -35 5 -50 0 -22 -6 -31 -3 -43 13 -8 12 -12 25 -9 29 4
7 5 59 3 209 0 12 0 178 0 265 0 11 0 67 0 125 0 58 0 112 0 120 0 8 0 62 0
120 0 58 0 111 0 118 0 37 0 244 0 255 0 12 0 282 0 322 0 11 0 76 0 145 0 69
0 130 0 135 0 6 0 62 0 125 0 63 0 124 0 135 0 47 0 231 0 240 0 6 0 45 1 88
1 44 -1 81 -4 84 -2 3 -1 16 4 29 6 16 6 24 -1 24 -6 0 -8 4 -5 9 4 5 6 40 6
78 0 37 -1 77 -1 88 0 51 0 232 0 245 0 8 0 40 0 70 0 30 -1 60 0 65 0 6 0 62
0 125 0 63 0 124 0 135 0 47 0 231 0 240 0 6 0 45 1 88 1 44 -1 81 -4 84 -2 3
-1 16 4 29 6 16 6 24 -1 24 -6 0 -8 4 -5 9 4 5 6 40 6 78 0 37 -1 77 -1 88 0
11 0 65 0 120 1 230 -5 270 -49 317 -11 12 -20 25 -20 29 0 10 -90 51 -120 55
-14 1 -86 3 -160 3 -74 1 -162 1 -195 2 -33 0 -138 1 -234 2 -171 2 -174 2
-182 25 -5 13 -5 21 -1 18 4 -2 6 12 5 32 -7 89 -8 122 -3 122 3 0 4 24 2 52
-1 29 -3 59 -2 66 0 6 0 20 0 30 0 9 0 31 1 47 0 17 0 36 0 43 -1 16 -1 39 0
55 0 6 -1 33 -3 60 -2 26 -1 47 2 47 7 0 4 89 -3 97 -4 3 -2 13 3 23 5 10 7
20 4 23 -7 7 -11 97 -4 97 3 0 4 24 2 52 -1 29 -3 59 -2 66 0 6 0 20 0 30 0 9
0 31 1 47 0 17 0 36 0 43 -1 16 -1 39 0 55 0 6 -1 33 -3 60 -2 26 -1 47 2 47
4 0 4 86 0 100 -6 16 -4 56 2 61 5 3 2 12 -5 21 -11 14 -30 11 -187 -34z
m-679 -908 c7 5 23 4 35 0 14 -6 26 -5 29 0 3 5 16 6 28 1 12 -4 36 -4 52 -1
17 3 40 3 52 -1 12 -5 25 -4 28 1 3 5 15 6 27 1 12 -4 36 -5 53 -1 16 3 41 4
55 0 24 -6 31 -23 30 -77 0 -7 0 -21 0 -30 0 -10 0 -38 -1 -63 0 -25 0 -58 0
-75 0 -16 0 -73 0 -125 -1 -103 -1 -106 1 -135 1 -11 1 -59 1 -107 0 -49 0
-94 0 -100 1 -7 0 -33 0 -58 0 -25 -1 -53 -1 -62 1 -10 0 -56 -1 -102 0 -47 2
-89 5 -95 4 -5 2 -12 -4 -16 -6 -4 -8 -11 -4 -16 3 -6 5 -40 4 -77 -1 -37 -1
-74 -1 -82 1 -8 0 -37 0 -65 -1 -27 -1 -66 0 -85 0 -19 1 -55 0 -80 0 -25 0
-58 0 -75 0 -16 0 -73 0 -125 -1 -103 -1 -106 1 -135 1 -11 1 -59 1 -107 0
-49 0 -94 0 -100 1 -7 0 -33 0 -58 0 -25 -1 -53 -1 -62 1 -10 0 -56 -1 -102 0
-47 2 -89 5 -95 4 -5 2 -12 -4 -16 -6 -4 -8 -11 -4 -16 3 -6 5 -40 4 -77 -1
-37 -1 -74 -1 -82 1 -8 0 -37 0 -65 -1 -27 -1 -66 0 -85 0 -19 1 -55 0 -80 0
-25 0 -58 0 -75 0 -16 0 -73 0 -125 -1 -103 -1 -106 1 -135 3 -63 1 -242 -4
-290 -1 -11 1 -34 5 -51 3 -18 3 -38 -1 -44 -4 -7 -4 -25 0 -41 5 -15 5 -44 0
-63 -4 -20 -4 -38 0 -41 4 -3 5 -20 1 -37 -4 -18 -6 -42 -5 -53 1 -11 3 -36 3
-55 1 -19 2 -46 2 -60 1 -14 1 -32 1 -40 -1 -18 -2 -168 -1 -192 0 -10 -1 -56
-2 -102 0 -47 2 -89 5 -95 4 -5 2 -12 -4 -16 -6 -4 -8 -11 -4 -16 3 -6 5 -40
4 -77 -1 -37 -1 -73 -1 -79 1 -7 1 -19 2 -25 0 -7 0 -49 0 -93 0 -44 0 -91 0
-105 0 -14 0 -54 0 -90 0 -36 0 -69 0 -75 0 -5 0 -61 -1 -123 -1 -110 -4 -120
-35 -112 -5 1 -17 2 -25 1 -29 -2 -146 -1 -188 2 -23 1 -42 -1 -42 -4 0 -4
-16 -3 -35 1 -19 4 -35 5 -35 1 0 -7 -86 -5 -106 3 -8 3 -14 16 -14 28 1 102
1 135 1 148 -1 19 1 108 3 140 1 14 -2 37 -5 52 -4 15 -4 43 1 62 4 20 4 38 0
41 -4 3 -5 20 -1 37 4 18 6 42 5 53 -2 23 -4 71 -4 100 1 86 1 114 1 140 0 17
0 59 0 95 0 36 0 72 0 80 -1 8 0 38 0 65 1 28 1 66 0 85 0 19 -1 55 0 80 0 25
0 59 0 75 0 17 0 59 0 95 0 36 0 72 0 80 -1 8 0 38 0 65 1 28 1 66 0 85 0 19
-1 55 0 80 0 25 0 59 0 75 0 17 0 59 0 95 0 36 0 72 0 80 -1 8 0 38 0 65 1 28
1 66 0 85 0 19 -1 55 0 80 0 25 0 59 0 75 0 17 0 59 0 95 0 36 0 72 0 80 -1 8
0 38 0 65 1 28 1 66 0 85 0 19 -1 55 0 80 0 25 0 59 0 75 0 17 0 59 0 95 0 36
0 72 0 80 -1 8 0 38 0 65 1 28 1 66 0 85 0 19 -1 55 0 80 0 25 0 59 0 75 0 17
0 59 0 95 0 36 0 72 0 80 -1 8 0 38 0 65 1 28 1 66 0 85 0 19 -1 55 0 80 0 25
0 59 0 75 0 17 0 59 0 95 0 36 0 72 0 80 -1 8 0 38 0 65 1 28 1 66 0 85 0 19
-1 55 0 80 0 25 0 59 0 75 0 17 0 59 0 95 0 36 0 72 0 80 0 8 0 44 0 80 0 61
0 72 -2 103 0 6 0 48 0 92 0 44 0 91 0 105 0 14 0 52 1 85 0 33 -1 84 -3 113
-1 28 1 52 5 52 4 0 5 7 2 15 -4 8 -3 26 0 39 5 21 9 23 40 16 19 -4 40 -4 47
0z"/>
</g>
</svg>
